<?xml version="1.0" encoding="UTF-8" standalone="no"?>

<svg
   xmlns:dc="http://purl.org/dc/elements/1.1/"
   xmlns:cc="http://creativecommons.org/ns#"
   xmlns:rdf="http://www.w3.org/1999/02/22-rdf-syntax-ns#"
   xmlns:svg="http://www.w3.org/2000/svg"
   xmlns="http://www.w3.org/2000/svg"
   xmlns:sodipodi="http://sodipodi.sourceforge.net/DTD/sodipodi-0.dtd"
   xmlns:inkscape="http://www.inkscape.org/namespaces/inkscape"
   width="512"
   height="512"
   viewBox="0 0 135.46667 135.46667"
   version="1.1"
   id="svg8"
   inkscape:version="0.92.4 (5da689c313, 2019-01-14)"
   sodipodi:docname="eights.svg"
   fill="#cbe5c4">
  <g
     inkscape:label="Layer 1"
     inkscape:groupmode="layer"
     id="layer1"
     transform="translate(0,-161.53333)">
    <path
       style="stroke-width:0.1615811"
       d="m 101.70817,198.97677 -2.987359,0.33547 c -2.952529,-0.82252 -29.513596,1.88716 -33.253201,1.28034 l -2.987357,0.33547 c 0.241862,10.59044 -1.38215,23.20877 -0.137911,35.55289 -0.0422,0.63533 0.0095,1.06353 0.08206,1.33652 -0.300274,-0.30566 -0.941566,-0.73866 -2.205962,-1.11876 -7.827841,-2.06003 -17.03925,1.87871 -20.181541,6.13882 -3.901345,4.57413 -2.966698,7.23442 -1.10298,9.99372 1.998924,2.95949 8.212086,3.54985 13.671275,1.19167 8.644285,-4.44318 13.393526,-6.31764 12.579973,-17.70354 -0.04449,-10.77942 0.117903,-22.45907 0.461073,-32.41248 -6.47e-4,-0.46081 -0.0012,-0.92179 -0.0013,-1.38259 9.748782,0.40695 32.330117,-1.4906 32.722634,-0.64443 0.540604,1.16543 -0.913843,19.10875 0.215292,32.98526 -0.0422,0.63536 0.0095,1.06354 0.08206,1.33652 -0.300235,-0.30567 -0.941446,-0.73863 -2.205962,-1.11876 -7.82784,-2.06002 -17.039251,1.8787 -20.181542,6.13882 -3.901345,4.57413 -2.967014,7.23442 -1.103295,9.99372 1.998924,2.95948 8.212115,3.54985 13.671274,1.19167 8.644286,-4.44318 13.393839,-6.31764 12.580289,-17.70355 -0.0445,-10.77941 0.11759,-22.45906 0.46076,-32.41247 -8.1e-4,-0.46081 -0.001,-0.92179 -0.001,-1.38259 0.0108,-0.45641 0.0145,-0.90213 -0.0798,-1.34946 -0.0452,-0.19187 -0.0719,-0.38707 -0.0972,-0.58226 z"
       id="path15"
       inkscape:connector-curvature="0"
       sodipodi:nodetypes="ccccccccsccccsccccscccccc" />
  </g>
</svg>
