<?xml version="1.0" encoding="UTF-8" standalone="no"?>
<!-- Created with Inkscape (http://www.inkscape.org/) -->

<svg
   xmlns:dc="http://purl.org/dc/elements/1.1/"
   xmlns:cc="http://creativecommons.org/ns#"
   xmlns:rdf="http://www.w3.org/1999/02/22-rdf-syntax-ns#"
   xmlns:svg="http://www.w3.org/2000/svg"
   xmlns="http://www.w3.org/2000/svg"
   xmlns:sodipodi="http://sodipodi.sourceforge.net/DTD/sodipodi-0.dtd"
   xmlns:inkscape="http://www.inkscape.org/namespaces/inkscape"
   width="512"
   height="512"
   viewBox="0 0 135.46667 135.46667"
   version="1.1"
   id="svg8"
   inkscape:version="0.92.4 (5da689c313, 2019-01-14)"
   sodipodi:docname="sixteens.svg"
   fill="#cbe5c4">
  <metadata
     id="metadata41">
    <rdf:RDF>
      <cc:Work
         rdf:about="">
        <dc:format>image/svg+xml</dc:format>
        <dc:type
           rdf:resource="http://purl.org/dc/dcmitype/StillImage" />
      </cc:Work>
    </rdf:RDF>
  </metadata>
  <defs
     id="defs39" />
  <sodipodi:namedview
     pagecolor="#ffffff"
     bordercolor="#666666"
     borderopacity="1"
     objecttolerance="10"
     gridtolerance="10"
     guidetolerance="10"
     inkscape:pageopacity="0"
     inkscape:pageshadow="2"
     inkscape:window-width="2560"
     inkscape:window-height="1017"
     id="namedview37"
     showgrid="false"
     inkscape:zoom="2.6074563"
     inkscape:cx="379.80839"
     inkscape:cy="273.19013"
     inkscape:window-x="-8"
     inkscape:window-y="-8"
     inkscape:window-maximized="1"
     inkscape:current-layer="layer1" />
  <g
     inkscape:label="Layer 1"
     inkscape:groupmode="layer"
     id="layer1"
     transform="translate(0,-161.53333)">
    <path
       style="stroke-width:0.66580421"
       d="M 186.73047 163.58594 C 158.25489 163.61538 133.65175 163.71749 114.8418 163.93945 L 114.8418 177.63867 L 114.91016 177.63867 C 114.57355 218.25068 109.67223 264.78875 114.27344 310.4375 C 114.09588 313.1105 114.32583 314.86172 114.63477 315.98242 C 113.41751 314.7207 110.79628 312.92164 105.52148 311.33594 C 73.266404 302.8475 35.309321 319.07681 22.361328 336.63086 C 6.2856126 355.47887 10.136849 366.44071 17.816406 377.81055 C 26.053087 390.00527 51.65549 392.43772 74.150391 382.7207 C 109.76967 364.41237 129.33862 356.68778 125.98633 309.77148 C 125.85793 278.66744 126.15635 245.79385 126.82812 214.77539 L 235.00781 214.77539 C 233.77635 244.33075 232.54166 275.54488 235.65039 306.38672 C 235.47283 309.05971 235.7027 310.81094 236.01172 311.93164 C 234.79447 310.66992 232.17324 308.87089 226.89844 307.28516 C 194.64336 298.79672 156.68822 315.02599 143.74023 332.58008 C 127.66451 351.42805 131.5138 362.38993 139.19336 373.75977 C 147.43004 385.95449 173.03244 388.38694 195.52734 378.66992 C 231.14662 360.36159 250.71752 352.637 247.36523 305.7207 C 247.24238 275.9564 247.513 244.5944 248.125 214.77539 L 357.23633 214.77539 C 356.00487 244.33075 354.77017 275.54488 357.87891 306.38672 C 357.70134 309.05971 357.93122 310.81094 358.24023 311.93164 C 357.02298 310.66992 354.40175 308.87089 349.12695 307.28516 C 316.87188 298.79672 278.91479 315.02599 265.9668 332.58008 C 249.89108 351.42805 253.74232 362.38993 261.42188 373.75977 C 269.65855 385.95449 295.26095 388.38694 317.75586 378.66992 C 353.37514 360.36159 372.94604 352.637 369.59375 305.7207 C 369.4709 275.9564 369.74152 244.5944 370.35352 214.77539 L 481.16016 214.77539 C 480.07191 241.9124 479.30053 270.26359 482.12695 298.30469 C 481.94932 300.97662 482.17754 302.72883 482.48633 303.84961 C 481.26849 302.58793 478.64793 300.7883 473.375 299.20312 C 441.11995 290.71468 403.16282 306.94399 390.21484 324.49805 C 374.13916 343.34606 377.99041 354.3079 385.66992 365.67773 C 393.90661 377.87246 419.50899 380.3049 442.00391 370.58789 C 477.62319 352.27956 497.19213 344.55497 493.83984 297.63867 C 493.65654 253.22144 494.32425 205.09565 495.73828 164.08203 C 392.4391 164.07069 272.1572 163.49762 186.73047 163.58594 z M 127.8418 177.63867 L 236.25 177.63867 C 236.14562 184.48418 235.9104 191.53593 235.64258 198.66797 L 127.21875 198.66797 C 127.40885 191.5172 127.61046 184.45641 127.8418 177.63867 z M 249.08984 177.63867 L 358.47852 177.63867 C 358.37413 184.48418 358.13891 191.53593 357.87109 198.66797 L 248.49414 198.66797 C 248.67499 191.52824 248.86838 184.47156 249.08984 177.63867 z M 371.31836 177.63867 L 482.55859 177.63867 C 482.37736 184.50319 482.1018 191.54874 481.81055 198.66797 L 370.72266 198.66797 C 370.9035 191.52824 371.09689 184.47156 371.31836 177.63867 z "
       transform="matrix(0.26458334,0,0,0.26458334,0,161.53333)"
       id="path15" />
  </g>
</svg>
