<?xml version="1.0" encoding="UTF-8" standalone="no"?>
<!-- Created with Inkscape (http://www.inkscape.org/) -->

<svg
   xmlns:dc="http://purl.org/dc/elements/1.1/"
   xmlns:cc="http://creativecommons.org/ns#"
   xmlns:rdf="http://www.w3.org/1999/02/22-rdf-syntax-ns#"
   xmlns:svg="http://www.w3.org/2000/svg"
   xmlns="http://www.w3.org/2000/svg"
   xmlns:sodipodi="http://sodipodi.sourceforge.net/DTD/sodipodi-0.dtd"
   xmlns:inkscape="http://www.inkscape.org/namespaces/inkscape"
   width="512"
   height="512"
   viewBox="0 0 135.46667 135.46667"
   version="1.1"
   id="svg8"
   inkscape:version="0.92.4 (5da689c313, 2019-01-14)"
   sodipodi:docname="triolet.svg"
   fill="#cbe5c4">
  <g
     inkscape:label="Layer 1"
     inkscape:groupmode="layer"
     id="layer1"
     transform="translate(0,-161.53333)">
    <path
       style="stroke-width:0.17616069"
       d="m 47.13068,205.02059 v 3.62458 h 0.0181 c -0.0891,10.74526 -1.385871,23.05846 -0.168471,35.13636 -0.047,0.70723 0.01389,1.17057 0.0956,1.46709 -0.322059,-0.33383 -1.0156,-0.80983 -2.41122,-1.22938 -8.53416,-2.2459 -18.57697,2.0481 -22.00279,6.69261 -4.25337,4.98687 -3.2344,7.88719 -1.20251,10.89546 2.17928,3.22652 8.95325,3.87011 14.90503,1.29915 9.42427,-4.84408 14.601881,-6.88788 13.714921,-19.30115 -0.048,-11.6186 0.12547,-24.18996 0.490929,-34.96014 h 28.683003 c -0.15992,10.48769 -1.335649,22.38752 -0.15865,34.06459 -0.04698,0.70723 0.01384,1.17057 0.0956,1.46709 -0.322061,-0.33383 -1.015597,-0.80982 -2.411222,-1.22938 -8.534154,-2.2459 -18.576448,2.0481 -22.002279,6.69262 -4.25337,4.98686 -3.234912,7.88718 -1.20302,10.89545 2.17928,3.22652 8.953254,3.87011 14.905034,1.29915 9.424268,-4.84408 14.602402,-6.88788 13.71544,-19.30115 -0.04639,-11.23941 0.115014,-23.35839 0.456305,-33.88837 h 28.94243 c -0.15992,10.48769 -1.33565,22.38752 -0.15865,34.06459 -0.047,0.70723 0.0138,1.17057 0.0956,1.46709 -0.32206,-0.33383 -1.0156,-0.80982 -2.41122,-1.22938 -8.53416,-2.2459 -18.576979,2.0481 -22.002802,6.69262 -4.25337,4.98686 -3.234391,7.88718 -1.20251,10.89545 2.179294,3.22652 8.953251,3.87011 14.905032,1.29915 9.42428,-4.84408 14.60241,-6.88788 13.71545,-19.30115 -0.0464,-11.23941 0.11501,-27.30062 0.4563,-37.8306 -23.215176,-0.73832 -16.566224,0.38761 -67.859415,0.31767 z"
       id="path15-1"
       inkscape:connector-curvature="0"
       sodipodi:nodetypes="ccccccccccccccccccccccccccccccc" />
    <text
       xml:space="preserve"
       style="font-style:normal;font-variant:normal;font-weight:normal;font-stretch:normal;font-size:27.48146248px;line-height:1.25;font-family:Georgia;-inkscape-font-specification:Georgia;letter-spacing:0px;word-spacing:0px;fill:#cbe5c4;fill-opacity:1;stroke:none;stroke-width:0.68703651"
       x="71.85437"
       y="196.5043"
       id="text3949"
      ><tspan
         sodipodi:role="line"
         id="tspan3947"
         x="71.85437"
         y="196.5043"
         style="font-style:normal;font-variant:normal;font-weight:normal;font-stretch:normal;font-family:Georgia;-inkscape-font-specification:Georgia;stroke-width:0.68703651">3</tspan></text>
  </g>
</svg>
